<?xml version="1.0" encoding="utf-8"?><!-- Uploaded to: SVG Repo, www.svgrepo.com, Generator: SVG Repo Mixer Tools -->
<svg fill="#000000" width="800px" height="800px" viewBox="0 0 24 24" id="chaise-longue-5" data-name="Flat Line" xmlns="http://www.w3.org/2000/svg" class="icon flat-line"><path id="secondary" d="M7,13V7.11A2.07,2.07,0,0,0,5.34,5,2,2,0,0,0,3,7V17H21V14a1,1,0,0,0-1-1Z" style="fill: rgb(44, 169, 188); stroke-width: 2;"></path><path id="primary" d="M5,17v2m14-2v2M17,7H7v6H19V9A2,2,0,0,0,17,7ZM7,13V7.11A2.07,2.07,0,0,0,5.34,5,2,2,0,0,0,3,7V17H21V14a1,1,0,0,0-1-1Z" style="fill: none; stroke: rgb(0, 0, 0); stroke-linecap: round; stroke-linejoin: round; stroke-width: 2;"></path></svg>